# xmcd
#
# Track frame offsets:
#  150
#  12672
#  25756
#  39085
#  48956
#  61235
#  75109
#  87997
#  99277
#  111413
#  124370
#  137768
#
# Disc length: 1980 seconds
#
# Revision: 0
# Processed by: cddbd v1.5.1PL2 Copyright (c) Steve Scherf et al.
# Submitted via: Collectorz.com_Music_Collector 6.9
#
DISCID=8e07ba0c
DTITLE=Mel Tillis - All Time Greastest Hits Disc 2
DYEAR=1995
DGENRE=Country
TTITLE0=01 - Commercial Affection
TTITLE1=02 - Best Way I Know How
TTITLE2=03 - Heart Over Mind
TTITLE3=04 - I Ain't Never
TTITLE4=05 - Mental Revenge
TTITLE5=06 - Love Revival
TTITLE6=07 - Good Woman Blues
TTITLE7=08 - Heart Healer
TTITLE8=09 - Burning Memories
TTITLE9=10 - I Got The Hoss
TTITLE10=11 - What Did I Promise Her Last Night
TTITLE11=12 - I Believe In You
EXTD=
EXTT0=
EXTT1=
EXTT2=
EXTT3=
EXTT4=
EXTT5=
EXTT6=
EXTT7=
EXTT8=
EXTT9=
EXTT10=
EXTT11=
PLAYORDER=
